<svg width="391" height="359" viewBox="0 0 391 359" fill="none" xmlns="http://www.w3.org/2000/svg">
<path d="M389.969 179.138C387.305 181.063 382.052 176.115 379.013 175.07C375.883 173.998 372.784 174.196 369.885 173.478C366.776 172.717 362.713 170.541 359.866 170.096C354.458 169.249 348.728 168.756 343.234 167.968C330.846 166.183 325.535 172.663 314.83 174.116C305.589 175.37 295.78 174.973 286.566 175.869C282.927 176.222 276.178 178.543 273.251 180.778C271.199 182.354 270.244 184.37 268.325 186.037C263.394 190.298 260.076 189.349 254.684 191.156C251.789 192.121 248.991 194.865 246.124 195.46C238.861 196.966 232.402 196.221 225.364 199.893C223.209 201.013 220.7 203.865 218.46 204.245C216.305 204.604 207.573 204.02 205.134 203.688C202.395 203.318 199.013 201.233 195.84 200.654C193.444 200.225 190.533 200.563 188.073 199.845C184.374 198.756 182.783 195.519 179.834 194.147C174.447 191.644 172.266 194.581 167.286 188.47C163.041 183.266 165.346 181.1 163.582 176.63C162.709 174.4 158.967 171.328 157.509 174.384C156.368 176.774 159.911 182.124 155.751 182.831C150.729 183.684 147.84 177.337 142.646 176.126C135.125 174.373 137.098 180.564 135.844 185.415C135.254 187.693 132.354 191.043 132.461 192.705C132.579 194.474 134.932 196.757 135.533 198.783C136.583 202.359 135.522 207.017 136.321 209.788C136.701 211.09 138.867 212.43 139.301 214.848C139.783 217.565 138.508 219.624 139.006 222.1C139.58 224.941 143.45 227.047 144.125 230.387C144.849 233.957 142.104 237.521 145.578 240.732C147.561 242.565 151.431 242.104 152.171 245.39C152.712 247.764 151.645 249.517 151.731 251.683C151.849 254.508 153.65 258.024 153.918 261.336C154.106 263.7 153.891 266.445 153.923 268.884C153.982 273.424 154.368 278.585 155.097 283.206C155.397 285.114 157.011 287.103 157.156 288.689C157.375 291.037 155.724 292.961 155.129 295.288C153.811 300.434 154.92 301.334 151.651 306.281C146.5 314.091 139.842 320.052 132.708 325.932C130.323 327.899 126.881 329.389 124.962 331.587C122.32 334.631 123.199 336.604 121.987 339.868C118.948 348.064 102.836 344.81 96.5749 349.297C94.7632 350.599 93.9913 352.615 92.5334 353.832C90.3196 355.675 79.2884 358.661 76.4368 358.65C74.7215 358.645 71.2267 357.155 70.3905 355.584C68.4662 351.966 70.0153 347.255 68.5198 342.983C66.4508 337.049 58.4963 334.326 54.4601 329.705C52.316 327.256 51.6674 324.217 49.8182 321.483C46.0285 315.892 40.4218 311.454 38.3635 304.529C37.2486 300.782 37.0878 295.374 35.5387 291.809C32.9444 285.838 24.5128 282.338 24.6736 274.758C24.7219 272.743 25.7564 270.904 25.8261 268.867C25.9225 265.952 25.9601 259.895 25.7993 257.091C25.5152 252.047 22.1436 246.039 22.0043 240.995C21.9078 237.484 23.682 234.627 23.0709 230.837C22.7279 228.688 20.5248 225.831 19.9567 223.236C19.1312 219.484 20.9054 216.933 20.2032 213.888C19.8012 212.162 18.1717 210.935 17.8716 209.777C17.3248 207.649 17.7697 204.449 16.9603 202.112C15.9205 199.1 13.0045 198.226 13.4923 193.873C13.8729 190.523 15.0039 189.012 14.3928 184.847C13.5995 179.481 8.31439 178.12 5.51102 173.896C3.94049 171.532 0.252691 162.286 0.0382847 159.541C-0.219003 156.191 0.895912 154.691 1.13712 152.016C1.37833 149.271 0.729746 146.388 1.36225 143.665C1.93042 141.22 4.57835 139.248 5.18941 136.771C5.81655 134.268 5.45742 130.548 6.24536 128.179C7.36564 124.824 13.1117 124.743 12.9456 119.876C12.892 118.161 11.7717 117.47 12.8973 115.534C14.4411 112.87 19.1473 112.072 21.6773 110.378C23.3657 109.252 24.0572 107.634 26.1691 106.83C30.8003 105.077 34.6114 107.553 38.8084 106.604C40.1645 106.299 42.2871 104.337 43.8201 103.576C47.8564 101.577 48.6872 101.507 52.7931 103.565C58.4588 106.411 59.7988 112.951 64.5426 115.4C67.2012 116.773 71.7734 117.051 74.9359 118.408C78.0341 119.737 80.4355 122.487 83.6569 123.087C87.0017 123.714 89.9658 122.798 93.2784 124.213C95.8459 125.311 95.133 127.305 96.8644 129.176C100.348 132.928 106.85 129.176 111.01 131.111C113.036 132.055 110.522 136.53 111.862 138.401C114.36 139.746 117.078 138.219 119.318 138.299C120.438 138.342 121.167 139.087 121.982 139.167C125.348 139.5 127.187 137.291 127.128 142.909C127.031 151.893 116.574 146.291 119.297 154.991C120.465 158.716 122.62 156.792 124.657 157.087C126.222 157.317 126.763 159.306 128.007 159.67C134.337 161.535 134.064 157.194 136.749 154.16C141.295 149.03 144.13 156.953 147.25 154.471C148.858 152.375 147.153 148.955 149.314 146.891C152.101 144.233 158.876 146.672 161.867 141.22C162.151 140.7 165.63 130.575 165.689 129.98C165.898 127.868 164.295 126.871 164.092 125.161C163.432 119.667 169.57 115.02 171.58 110.346C175.493 106.272 182.375 112.265 186.272 104.519C188.668 99.7434 189.124 95.1873 188.062 89.9719C186.578 82.6874 183.517 85.6784 178.35 84.1882C171.103 82.1085 171.853 78.7477 169.296 73.3607C166.059 66.5265 166.327 65.4008 164.247 58.5773C162.87 54.0534 160.329 52.3435 161.524 46.5384C161.733 45.52 165.903 35.6358 166.482 34.88C168.744 31.9159 171.993 30.2757 174.544 27.9333C176.388 26.2394 177.412 23.8167 178.816 22.557C181.534 20.1074 186.481 20.6756 188.421 17.69C189.3 16.3446 189.424 14.0826 190.592 12.8926C191.793 11.6651 194.414 11.3971 195.979 10.2393C198.965 8.03631 199.533 3.56057 202.653 1.36826C208.158 -2.50178 211.54 2.59038 213.384 7.29661C217.918 7.95591 221.612 6.68019 225.691 9.46212C228.006 11.0487 229.303 13.7663 231.362 15.5834C236.159 19.818 241.959 20.9114 245.234 27.4401C246.381 29.7289 246.445 32.3232 247.319 34.4673C248.3 36.8526 250.615 38.9377 251.216 41.8268C251.693 44.1263 251.205 46.2865 251.516 48.4949C251.918 51.3518 253.36 54.5626 253.601 57.1301C254.357 65.2668 248.675 71.8438 249.318 80.7095C249.962 89.6342 262.231 108.598 270.759 111.798C276.982 114.13 281.876 114.211 288.024 115.438C300.883 118.011 311.287 121.763 322.726 127.906C328.579 131.052 334.014 131.787 337.766 138.594C339.878 142.41 339.642 147.084 342.757 150.488C343.77 151.592 352.019 158.325 353.268 159.005C357.508 161.337 364.187 162.264 368.834 164.344C370.941 165.293 372.35 166.847 374.06 167.694C379.072 170.171 391.711 171.2 389.969 179.138Z" fill="#BAD800"/>
</svg>
