<svg width="301" height="359" viewBox="0 0 301 359" fill="none" xmlns="http://www.w3.org/2000/svg">
<path d="M298.502 162.333C297.153 164.895 293.64 166.212 291.06 167.167C286.011 172.72 284.815 180.747 279.454 185.916C278.695 186.648 277.199 187.318 276.775 187.701C276.208 188.215 275.807 190.027 274.097 190.826C272.834 193.032 272.204 195.143 271.419 197.522C269.633 202.915 269.517 202.129 266.87 206.584C264.022 211.374 261.808 217.579 258.848 222.226C257.759 223.931 255.598 225.516 254.272 227.471C252.21 230.507 250.697 234.631 248.197 237.466C246.902 238.93 245.081 239.877 243.742 241.269C240.965 244.158 238.372 247.903 237.046 251.537C236.961 251.764 237.126 252.197 237.046 252.429C238.559 254.514 238.764 258.063 238.193 260.496C237.796 262.188 235.89 264.147 235.47 265.808C235.086 267.312 235.425 268.589 234.917 270.165C234.586 271.183 232.095 274.321 231.243 275.642C230.104 277.405 229.198 280.267 227.225 280.999C227.212 281.521 226.792 282.079 226.779 282.338C226.765 282.628 227.404 283.003 227.006 284.083C226.301 286.03 221.841 290.315 220.529 292.605C218.685 295.81 217.9 300.002 216.721 303.305C215.811 305.854 213.034 307.658 213.396 311.537C213.556 313.269 215.306 314.354 215.552 315.247C216.128 317.331 212.539 320.121 211.418 321.661C210.338 323.143 209.61 324.858 208.467 326.295C199.874 337.089 186.156 342.142 176.907 352.324C173.113 354.235 169.479 352.829 165.85 352.833C163.725 352.838 162.18 353.958 159.649 353.717C153.605 353.146 152.498 348.365 148.779 347.61C144.619 346.767 140.213 348.615 135.999 346.106C134.722 345.347 133.785 343.539 132.468 342.941C129.062 341.401 127.111 342.928 124.107 343.048C124.147 344.057 123.509 344.236 122.795 344.637C116.424 348.204 113.001 346.66 106.47 345.731C105.622 345.611 104.559 345.914 103.854 345.745C103.358 345.624 103.622 344.87 103.573 344.834C103.474 344.767 103.247 344.896 103.126 344.834C101.381 343.914 100.131 343.374 98.2158 343.048C95.7071 342.62 92.4528 343.463 91.5198 339.923C90.4351 339.142 89.4262 337.638 88.8415 337.245C87.163 336.12 84.8774 336.482 83.0383 336.352C81.6634 338.178 79.4224 339.2 77.6547 340.575C72.4051 344.66 69.5392 346.566 63.678 349.802C61.3745 351.074 59.3702 354.199 57.5668 355.744C55.3169 357.672 49.2905 359.52 46.5452 358.337C45.7595 357.994 45.2997 357.079 44.6123 356.699C42.0231 355.266 34.2022 356.757 30.3498 355.784C27.658 355.101 25.2028 351.744 22.3325 350.851C18.6943 349.722 13.4402 350.204 10.5386 347.021C9.20837 345.566 8.98964 343.557 6.93174 342.151C4.69082 340.62 0.226831 340.468 0.00363141 336.977C-0.21064 333.589 9.11909 333.598 11.6368 331.241C13.6545 329.348 12.9447 327.991 13.5027 325.965C14.3821 322.804 22.3593 318.184 25.0064 314.925C26.4215 313.18 27.3009 310.733 28.1312 308.676C29.399 305.528 29.7695 305.189 31.256 302.426C34.0906 297.158 34.6174 296.453 38.3895 291.927C39.4965 290.596 40.117 288.757 41.5232 287.695C41.6794 287.338 41.7598 286.842 41.9696 286.356C42.791 284.463 44.5989 282.695 44.6703 280.311C44.7328 278.124 42.8758 275.245 42.8579 273.191C42.8356 270.656 45.0408 267.83 45.1167 265.58C45.2104 262.585 42.0901 260.406 42.8713 257.197C42.9606 256.826 43.782 257.045 43.8087 256.242C43.8578 254.416 42.9963 252.144 43.7507 250.01C44.5721 247.675 46.5586 247.912 48.0004 246.631C49.5851 245.233 50.652 241.707 52.2323 240.149C53.3483 239.051 55.0491 238.832 55.991 237.212C57.2364 235.06 56.0133 235.011 55.8303 233.435C55.2366 228.212 58.3435 227.163 58.8926 223.15C59.8612 216.106 58.1292 215.82 54.9151 210.914C54.3527 210.057 53.6384 209.419 53.5759 208.236L49.112 202.879C47.1255 201.763 45.8622 200.384 44.2016 198.861C42.3312 197.147 41.6303 196.018 40.184 194.397C37.4118 191.295 34.0192 188.643 31.7828 185.166C30.2293 182.751 28.1446 178.876 27.6848 176.095C27.4839 176.113 27.3098 176.091 27.2429 175.867C27.4572 173.935 26.0465 172.292 25.926 170.448C25.8323 168.997 26.2608 166.631 26.3456 164.935C24.7386 162.011 21.1897 160.36 21.9084 156.699C22.0602 155.931 22.5468 154.181 22.7744 153.329C23.2967 151.311 21.4352 149.744 21.2254 148.039C21.1451 147.387 21.4799 146.686 21.4442 145.994C21.3058 143.611 21.2299 140.754 21.4174 138.397C21.5424 136.875 22.462 134.933 22.3236 133.504C22.087 131.08 18.9086 128.697 18.5024 127.005C18.2569 125.973 18.9979 123.402 18.7926 121.826C18.6765 120.969 17.9444 121.402 17.8283 120.55C17.3864 117.188 19.1586 115.358 19.2256 112.916C19.2657 111.47 18.5783 110.291 18.7926 108.51C18.98 106.926 20.2076 105.658 20.1318 104.011C20.0068 101.265 17.3909 95.355 17.0204 91.8999C16.8954 90.7705 16.9043 89.5206 16.9802 88.3822C17.1364 85.9449 22.5825 70.1558 23.9127 68.089C25.2966 65.9329 29.7293 62.8125 31.6935 60.2413C33.0996 58.3976 34.3094 55.1791 35.9343 53.7729C39.4519 50.7374 44.398 47.5234 47.9826 44.3941C51.5493 41.2827 50.2414 38.2427 53.6027 35.7295C57.0355 33.1672 57.5846 33.1895 59.9014 29.0826C61.8611 25.6097 62.4012 21.5251 63.9011 18.7976C64.5975 17.5343 66.5215 16.3781 67.4143 15.1684C70.9453 10.3696 68.1866 6.00382 74.146 2.25854C84.7748 -4.41512 91.6448 5.49493 100.903 8.90988C120.505 16.1326 145.11 17.1995 163.533 26.6319C166.01 27.9041 168.327 29.6674 170.809 30.962C174.09 32.6717 179.911 33.935 182.125 37.1535C183.295 38.8588 183.679 41.122 185.313 42.796C187.205 44.7423 190.634 45.6976 192.821 47.3403C194.437 48.5501 195.727 50.4919 197.357 51.7329C201.664 55.0184 208.128 58.8664 212.065 62.4688C213.351 63.6473 214.217 66.2275 216.284 66.3257C217.869 66.4016 219.154 65.0802 220.779 66.7051C222.868 68.7943 219.002 73.8877 224.578 76.2893C228.167 77.8294 227.779 74.9099 230.613 74.7894C234.01 74.651 240.903 82.6683 244.05 84.945C248.8 88.3912 256.969 91.3285 259.897 96.3281C261.142 98.453 261.486 101.261 263.383 102.886C263.464 102.77 263.852 102.703 263.982 102.444C264.651 101.073 264.156 99.4574 266.062 98.4218C268.008 97.3638 272.552 100.538 274.307 102.006C276.396 103.752 277.597 105.769 278.561 108.243C280.846 114.09 280.445 116.862 284.364 122.527C287.417 126.942 287.873 128.116 289.721 133.241C290.498 135.397 290.73 137.7 292.02 139.665L292.846 140.383C295.582 141.847 300.202 145.615 300.778 148.744C301.537 152.865 299.314 158.208 298.502 162.333Z" fill="#BAD800"/>
</svg>
