<svg id="svg" version="1.1" xmlns="http://www.w3.org/2000/svg" xmlns:xlink="http://www.w3.org/1999/xlink" width="400" height="600" viewBox="0, 0, 400,600"><g id="svgg"><path id="path0" d="M198.082 137.562 C 196.093 137.919,194.782 139.002,193.665 141.211 C 193.230 142.070,192.308 143.477,191.616 144.336 C 182.656 155.461,173.047 174.571,170.306 186.719 C 166.763 202.415,177.406 219.613,192.987 223.370 L 195.698 224.023 195.700 229.395 L 195.703 234.766 187.988 234.795 C 179.608 234.828,178.488 235.033,176.506 236.905 C 174.127 239.150,174.219 237.755,174.219 271.649 L 174.219 302.698 144.629 302.821 L 115.039 302.944 112.305 303.852 C 102.198 307.207,94.549 315.355,92.408 325.047 C 91.738 328.076,91.621 439.085,92.284 441.373 C 95.709 453.177,102.702 459.951,113.867 462.279 C 116.739 462.878,123.803 462.921,201.172 462.812 L 285.352 462.694 288.272 461.790 C 296.386 459.278,303.679 452.465,306.464 444.792 C 308.228 439.932,308.248 439.152,308.125 381.055 L 308.008 325.977 307.096 323.242 C 304.504 315.470,298.864 308.891,291.992 305.622 C 286.143 302.840,287.754 302.962,255.273 302.828 L 225.977 302.707 225.977 271.763 C 225.977 239.144,225.991 239.445,224.333 237.475 C 222.304 235.064,221.047 234.784,212.207 234.774 L 204.297 234.766 204.297 229.336 L 204.297 223.906 206.348 223.433 C 220.905 220.075,231.963 203.818,229.727 189.063 C 227.957 177.386,218.655 158.668,207.984 145.313 C 207.040 144.131,205.738 142.246,205.090 141.124 C 203.312 138.045,201.244 136.994,198.082 137.562 M201.953 153.022 C 222.014 180.868,225.362 196.831,213.629 208.697 C 198.516 223.982,173.921 207.645,179.953 186.328 C 182.578 177.052,189.506 163.559,196.951 153.223 C 199.737 149.355,199.323 149.371,201.953 153.022 M216.406 244.629 C 216.406 244.790,216.406 257.930,216.406 273.828 L 216.406 302.734 200.000 302.734 L 183.594 302.734 183.594 273.433 L 183.594 244.132 200.000 244.234 C 209.024 244.290,216.406 244.468,216.406 244.629 M285.150 312.836 C 290.433 314.419,294.421 317.952,296.993 323.329 L 298.633 326.758 298.757 338.379 L 298.880 350.000 297.745 350.000 C 293.230 350.000,287.817 352.429,281.102 357.469 C 267.938 367.347,259.225 367.575,247.042 358.358 C 233.170 347.863,219.367 347.170,208.134 356.406 C 199.740 363.307,196.262 364.844,189.029 364.844 C 182.342 364.844,180.293 363.991,173.047 358.194 C 159.331 347.220,147.865 347.044,133.789 357.593 C 125.105 364.100,122.875 365.019,116.406 364.751 C 111.317 364.541,110.093 364.028,104.960 359.957 L 101.130 356.920 101.249 341.839 L 101.367 326.758 102.692 323.686 C 105.095 318.113,110.637 313.499,116.033 312.581 C 119.355 312.016,283.236 312.262,285.150 312.836 M160.672 361.272 C 162.429 362.164,165.889 364.471,168.359 366.398 C 176.324 372.608,180.171 374.025,189.063 374.021 C 198.346 374.017,202.555 372.492,211.344 365.951 C 219.639 359.777,220.093 359.587,226.367 359.642 C 231.924 359.691,234.055 360.441,239.229 364.169 C 250.977 372.636,255.800 374.479,265.234 374.108 C 273.730 373.774,276.851 372.561,284.860 366.483 C 291.554 361.402,295.393 359.375,298.317 359.375 C 299.152 359.375,299.052 435.774,298.212 439.470 C 296.774 445.791,291.786 450.927,285.183 452.886 C 282.628 453.644,118.144 453.852,114.889 453.102 C 108.436 451.614,103.141 446.141,101.734 439.504 C 101.172 436.849,100.854 369.141,101.405 369.141 C 101.533 369.141,102.104 369.470,102.674 369.872 C 110.048 375.077,121.095 375.656,130.173 371.313 C 133.210 369.860,134.605 368.938,140.299 364.615 C 148.128 358.672,153.738 357.751,160.672 361.272 " stroke="none" fill="#040404" fill-rule="evenodd"></path><path id="path1" d="M0.000 300.000 L 0.000 600.000 200.000 600.000 L 400.000 600.000 400.000 300.000 L 400.000 0.000 200.000 0.000 L 0.000 0.000 0.000 300.000 M202.650 138.221 C 203.302 138.686,204.823 140.515,206.030 142.287 C 207.236 144.058,209.786 147.665,211.697 150.302 C 223.380 166.426,230.480 183.639,229.991 194.652 C 229.422 207.444,219.360 220.118,207.215 223.340 L 204.637 224.023 204.565 229.395 L 204.492 234.766 212.415 234.766 C 220.989 234.766,221.885 234.934,223.969 236.931 C 226.250 239.118,226.172 237.881,226.172 271.649 L 226.172 302.698 255.762 302.821 L 285.352 302.945 288.477 304.036 C 297.268 307.105,303.818 313.652,306.911 322.461 L 308.008 325.586 308.112 382.213 C 308.214 437.806,308.202 438.898,307.431 441.979 C 304.934 451.963,296.410 460.197,286.400 462.292 C 282.118 463.189,117.540 463.201,113.282 462.305 C 102.910 460.123,94.454 451.782,92.409 441.716 C 91.478 437.133,91.482 328.087,92.413 324.493 C 94.889 314.937,102.118 307.185,111.523 304.000 L 114.648 302.942 144.231 302.818 L 173.814 302.694 173.919 271.562 C 174.037 236.265,173.818 238.577,177.278 236.149 L 178.971 234.961 187.337 234.842 L 195.703 234.723 195.703 229.478 L 195.703 224.234 194.629 224.004 C 177.507 220.348,165.897 201.684,170.463 185.156 C 173.783 173.141,180.463 159.813,189.650 146.875 C 191.404 144.404,193.237 141.665,193.721 140.787 C 195.631 137.330,199.740 136.149,202.650 138.221 M198.057 151.899 C 183.903 170.796,176.784 189.821,180.210 199.601 C 187.694 220.963,215.651 218.682,220.173 196.340 C 221.923 187.695,215.472 172.096,202.830 154.401 C 199.358 149.541,199.692 149.717,198.057 151.899 M183.594 273.332 L 183.594 302.327 200.000 302.433 L 216.407 302.539 216.406 273.438 L 216.406 244.336 200.000 244.336 L 183.594 244.336 183.594 273.332 M113.630 313.427 C 108.038 315.402,104.026 319.586,102.101 325.453 C 101.510 327.254,101.397 329.538,101.276 342.188 L 101.135 356.836 104.767 359.719 C 114.081 367.112,121.443 366.790,132.334 358.511 C 148.239 346.421,158.911 346.556,174.227 359.042 C 184.620 367.514,194.306 367.097,206.382 357.657 C 214.466 351.337,219.518 349.565,227.847 350.127 C 234.889 350.601,238.844 352.233,246.455 357.802 C 259.704 367.497,267.518 367.477,280.518 357.718 C 287.352 352.588,291.941 350.445,297.266 349.895 L 298.633 349.754 298.750 340.014 C 298.950 323.366,295.905 316.792,286.447 313.454 L 283.789 312.516 200.000 312.516 L 116.211 312.516 113.630 313.427 M150.358 359.778 C 147.232 360.153,144.291 361.641,139.733 365.156 C 126.959 375.006,116.084 376.989,105.205 371.449 L 101.546 369.587 101.652 405.008 L 101.758 440.430 103.048 443.164 C 105.243 447.819,109.265 451.280,114.228 452.786 C 117.472 453.770,281.049 453.926,284.714 452.949 C 290.978 451.279,296.183 446.347,297.924 440.430 C 298.559 438.271,298.623 434.977,298.735 398.696 L 298.856 359.307 297.573 359.584 C 293.582 360.445,290.853 362.001,283.679 367.506 C 269.767 378.183,256.097 377.010,238.337 363.616 C 234.183 360.483,229.195 359.198,223.553 359.807 C 219.775 360.215,217.974 361.126,211.717 365.794 C 195.932 377.572,183.212 377.706,167.969 366.255 C 160.043 360.301,156.589 359.031,150.358 359.778 " stroke="none" fill="#fbfbfb" fill-rule="evenodd"></path><path id="path2" d="M198.340 214.736 C 199.038 214.822,200.181 214.822,200.879 214.736 C 201.577 214.649,201.006 214.578,199.609 214.578 C 198.213 214.578,197.642 214.649,198.340 214.736 M204.449 229.492 C 204.449 232.285,204.512 233.376,204.587 231.917 C 204.662 230.458,204.662 228.173,204.586 226.839 C 204.510 225.505,204.448 226.699,204.449 229.492 M174.014 271.875 C 174.014 288.955,174.062 295.942,174.121 287.402 C 174.180 278.862,174.180 264.888,174.121 256.348 C 174.062 247.808,174.014 254.795,174.014 271.875 M192.311 244.433 C 196.784 244.496,203.991 244.496,208.327 244.433 C 212.663 244.370,209.004 244.319,200.195 244.319 C 191.387 244.319,187.839 244.371,192.311 244.433 M191.726 302.636 C 196.305 302.699,203.688 302.699,208.132 302.636 C 212.575 302.574,208.828 302.522,199.805 302.522 C 190.781 302.523,187.146 302.574,191.726 302.636 M151.862 349.892 C 152.565 349.979,153.619 349.978,154.206 349.888 C 154.793 349.799,154.219 349.728,152.930 349.730 C 151.641 349.733,151.160 349.806,151.862 349.892 M187.394 374.501 C 188.087 374.587,189.318 374.588,190.128 374.504 C 190.938 374.419,190.371 374.349,188.867 374.347 C 187.363 374.345,186.700 374.414,187.394 374.501 M263.184 374.494 C 263.667 374.588,264.458 374.588,264.941 374.494 C 265.425 374.401,265.029 374.325,264.063 374.325 C 263.096 374.325,262.700 374.401,263.184 374.494 " stroke="none" fill="#a5a5a5" fill-rule="evenodd"></path><path id="path3" d="M121.582 312.401 C 123.892 312.470,127.671 312.470,129.980 312.401 C 132.290 312.332,130.400 312.275,125.781 312.275 C 121.162 312.275,119.272 312.332,121.582 312.401 M244.434 312.402 C 251.362 312.462,262.700 312.462,269.629 312.402 C 276.558 312.342,270.889 312.293,257.031 312.293 C 243.174 312.293,237.505 312.342,244.434 312.402 M101.264 403.418 C 101.314 422.271,101.402 432.158,101.459 425.391 C 101.728 393.175,101.730 369.140,101.465 369.141 C 101.304 369.141,101.213 384.565,101.264 403.418 " stroke="none" fill="#7c7c7c" fill-rule="evenodd"></path><path id="path4" d="" stroke="none" fill="#848484" fill-rule="evenodd"></path></g></svg>