<svg width="301" height="359" viewBox="0 0 301 359" fill="none" xmlns="http://www.w3.org/2000/svg">
<path d="M270.228 192.009C269.175 191.114 268.891 189.911 269.48 188.708C269.66 188.341 269.393 187.773 270.193 187.534C272.53 187.225 277.06 187.076 275.16 190.356C274.221 191.971 271.984 192.223 270.228 192.009Z" fill="#BAD800"/>
<path d="M268.166 202.308C268.411 201.2 271.333 200.351 272.526 200.866C274.177 201.583 275.274 204.274 272.535 204.781C272.399 204.805 272.238 204.776 272.098 204.781C271.32 204.805 270.595 204.764 269.913 204.369H269.477C269.197 203.944 267.838 203.788 268.166 202.308Z" fill="#BAD800"/>
<path d="M300.934 285.127C300.16 284.344 299.536 284.192 299.186 283.891C299.016 283.809 298.858 283.508 298.749 283.479C298.596 283.356 298.47 283.191 298.312 283.067C298.291 283.051 298.273 283.034 298.251 283.018C298.234 283.001 298.216 282.985 298.199 282.968H298.194C298.12 282.902 298.05 282.828 297.98 282.758C297.945 282.721 297.91 282.688 297.875 282.655C297.731 282.519 297.574 282.387 297.439 282.243C297.294 282.107 297.146 281.971 297.002 281.831C296.858 281.691 296.718 281.547 296.565 281.419C296.626 281.357 296.539 280.842 296.565 280.595C296.788 278.312 296.167 273.318 294.603 271.53C293.502 270.274 291.982 271.782 290.885 271.942C290.842 271.744 290.649 271.559 290.448 271.53C289.719 271.423 289.011 271.897 289.129 270.71L288.448 271.555L287.39 271.118C287.395 270.982 287.386 270.842 287.39 270.706H286.953V270.294C286.866 270.286 286.674 269.969 286.517 269.882H286.08C286.093 269.61 286.071 269.33 286.08 269.058C286.11 268.271 286.263 268.634 286.08 267.41C285.997 266.85 285.8 266.429 286.08 265.762C286.237 265.494 286.364 265.21 286.517 264.938C286.814 264.41 286.814 264.147 286.892 263.871C286.91 263.813 286.927 263.759 286.953 263.702C287.351 262.783 287.233 261.786 288.225 260.986C289.776 259.73 291.292 260.962 292.196 258.757H291.759C291.89 258.605 292.061 258.489 292.196 258.345C292.248 258.151 292.432 257.999 292.633 257.933C292.703 257.847 292.563 257.612 292.633 257.521C292.76 257.356 292.808 257.146 293.07 257.109V255.873H293.507C293.445 255.696 293.188 255.597 293.07 255.461H292.196L292.633 255.049C291.383 254.365 290.737 254.526 289.575 254.225L287.39 252.165C287.36 252.033 287.425 251.88 287.39 251.753V251.341C287.32 251.085 287.05 250.801 286.953 250.517V250.104H287.39L287.823 250.517L287.39 248.044H286.953C287.093 247.686 287.277 247.472 287.39 247.22C287.53 246.907 287.67 246.47 287.753 246.203C287.762 246.17 287.775 246.137 287.783 246.108L287.792 246.079C287.81 246.029 287.818 245.997 287.827 245.984C288.902 244.266 290.663 243.17 291.759 241.452V239.392C291.615 239.383 291.466 239.4 291.322 239.392C290.75 239.35 290.151 239.392 289.575 239.392H288.264C284.048 240.652 286.115 239.915 283.021 238.98C282.322 238.193 281.798 237.406 281.274 236.507C281.23 236.437 280.75 236.359 280.509 235.803C280.4 235.551 279.998 233.936 279.963 233.623C279.915 233.207 280.343 232.717 280.4 232.387C280.409 232.346 279.885 232.111 280.156 231.6C280.785 231.18 281.235 230.343 281.711 229.915C282.108 229.556 283.799 228.732 284.332 228.267V227.855H284.769C284.813 227.653 285.188 227.5 285.206 227.443C285.241 227.315 285.171 227.158 285.206 227.031C285.298 226.693 285.136 226.174 285.206 225.794C285.241 225.601 285.433 225.432 285.643 225.382C285.586 225.205 285.285 225.094 285.206 224.97L284.769 224.558C282.987 223.133 283.642 224.085 282.585 224.146C282.165 224.793 280.313 224.847 279.963 224.146V223.734C279.439 223.829 279.159 224.13 279.09 224.146H276.468C275.319 223.454 274.55 221.781 274.362 220.533C274.223 219.573 274.751 218.506 274.686 218.419C274.611 218.32 273.755 218.25 273.393 217.785C270.994 214.69 271.732 213.454 271.226 210.137C271.204 210.001 271.247 209.857 271.226 209.725C271.195 209.56 270.898 209.078 270.789 208.489C270.719 208.11 270.867 207.616 270.789 207.253C270.767 207.162 270.435 207.002 270.352 206.841C270.221 206.759 270.103 206.474 269.915 206.429C269.705 206.965 269.085 206.829 268.604 206.841C268.167 206.853 267.731 206.833 267.294 206.841C267.115 206.845 264.777 207.949 263.921 207.982C263.309 208.007 261.78 207.805 261.177 207.665C260.526 207.513 260.212 206.989 259.867 206.841C258.486 206.248 257.403 205.246 257.245 205.193C257.407 204.616 256.843 203.924 256.808 203.545V202.309L258.119 199.424C259.644 198.815 260.417 196.326 259.242 195.279C258.897 194.974 258.351 195.028 258.119 194.892C257.687 194.641 257.748 194.468 256.808 194.068C256.551 193.961 255.668 193.862 255.061 193.656C254.834 193.578 254.593 193.355 254.187 193.244C252.077 192.663 252.422 192.774 250.255 192.832C249.958 192.127 248.949 192.547 248.508 192.42C248.372 192.379 248.198 192.461 248.071 192.42C248.014 192.399 247.603 191.868 247.197 191.596C247.839 189.997 246.472 188.65 246.323 187.648C246.183 186.742 246.642 186.334 246.323 185.003C246.009 183.693 245.305 183.256 245.013 182.531C244.864 182.164 244.571 181.221 244.576 180.883C244.584 179.906 245.205 179.449 245.231 179.037C245.423 176.186 244.659 176.066 242.828 174.29C244.737 173.462 243.134 172.3 242.959 171.488C242.745 170.524 242.553 169.49 242.391 168.522C242.37 168.386 242.413 168.246 242.391 168.11C242.605 168.266 243.156 168.378 243.265 168.522C244.816 168.139 246.633 167.24 247.634 166.05C248.442 165.085 249.29 163.919 248.87 162.621C248.713 162.135 248.158 162.053 248.071 161.929C247.988 161.814 248.18 161.381 248.031 161.142C247.704 161.126 247.446 161.455 247.197 161.517C247.166 161.525 246.786 160.936 246.542 161.476C246.083 162.498 246.607 163.956 245.013 164.401C244.803 164.459 244.418 164.389 244.139 164.401C243.772 164.418 243.117 164.472 242.828 164.401C241.295 164.031 241.076 162.906 240.207 162.341C239.097 161.624 237.568 161.641 236.275 161.517C236.078 161.497 235.733 161.056 235.24 161.163C234.768 161.221 234.702 161.785 234.527 161.929L234.964 162.337C234.698 162.395 234.226 162.259 234.091 162.341C233.968 162.411 233.789 162.626 233.654 162.753C233.51 162.889 233.37 163.038 233.217 163.165C231.806 164.401 230.596 165.205 228.848 166.05C225.095 167.867 224.955 167.904 221.858 165.226L221.639 165.02C221.565 164.954 221.495 164.879 221.421 164.813L221.203 164.607C221.133 164.537 221.058 164.467 220.984 164.401C220.84 164.265 220.683 164.134 220.547 163.989C219.966 163.483 219.647 162.654 218.765 162.164C217.777 161.616 214.885 160.87 214.086 160.182C213.845 159.972 214.051 159.523 213.994 159.457L213.662 159.144C213.662 159.144 213.627 159.111 213.61 159.099L213.557 159.045C212.919 157.578 213.046 156.787 213.557 155.337C214.064 153.895 215.79 152.032 217.38 151.707C218.118 151.554 218.747 152.09 219.237 152.04C219.451 152.02 222.767 150.598 223.169 150.392C226.24 148.798 225.362 145.308 226.664 142.564C227.935 141.855 228.367 140.186 231.163 140.903C231.522 140.998 231.788 142.399 234.091 142.152C234.252 142.135 234.877 141.649 235.467 141.575C237.686 141.303 239.884 141.332 241.954 140.091C242.103 140.227 242.26 140.351 242.391 140.504C245.576 139.424 245.332 138.04 242.391 136.795C242.029 136.861 241.282 136.964 241.081 137.207C240.661 137.232 240.478 136.976 240.207 136.795H240.644V136.383C240.207 136.231 239.761 136.119 239.333 135.971C239.198 135.926 239.006 136.025 238.896 135.971C238.874 135.959 238.853 135.946 238.831 135.93C238.8 135.905 238.774 135.872 238.743 135.843C238.656 135.749 238.564 135.629 238.459 135.559C238.32 135.468 238.14 135.279 238.023 135.147C237.708 134.986 237.07 135.011 236.712 134.735C236.821 134.706 236.983 134.405 237.149 134.323C237.118 134.245 237.533 133.132 237.144 132.675C235.344 132.877 234.977 134.022 233.217 132.675V132.263C233.02 132.193 232.828 132.044 232.78 131.851H232.343C232.378 131.818 232.439 131.406 232.78 131.027C232.911 130.883 233.09 130.767 233.217 130.615H233.654C233.772 129.56 232.229 129.053 231.255 128.967C230.954 129.037 231.08 129.292 231.032 129.379C231.911 129.201 232.116 130.058 232.343 130.203C231.928 130.252 231.412 130.128 231.032 130.203C230.395 130.33 229.936 130.314 229.722 131.027C229.193 131.105 227.686 131.439 227.537 131.439C226.065 131.439 225.148 129.267 223.203 130.19L222.692 128.406C223.662 127.73 224.693 127.545 224.479 126.082C224.379 126.012 224.851 125.353 223.854 125.225C221.521 124.92 220.814 125.74 219.237 126.082C218.398 126.264 217.498 126.614 216.615 126.494C217.275 124.286 215.335 124.966 214.662 124.01C214.208 123.367 214.291 121.875 213.557 121.138C213.679 120.845 213.985 120.359 213.994 120.314C214.295 118.822 214.077 117.252 212.246 117.018C210.809 116.832 211.097 117.664 210.311 117.92C209.459 118.196 208.778 117.784 208.314 117.842C207.764 116.614 206.951 116.601 205.693 116.606C205.553 116.606 205.392 116.581 205.256 116.606V116.194C205.309 115.802 205.178 115.32 205.256 114.957C205.309 114.702 205.178 114.319 205.256 114.133C205.737 112.996 209.263 110.355 209.651 109.733C210.053 109.09 210.162 107.656 210.499 106.717L212.731 106.47L212.74 103.903L216.178 101.772C217.026 102.081 218.289 103.149 219.136 103.322C221.111 103.717 223.3 103.519 225.353 105.069C225.445 105.139 225.532 105.233 225.624 105.324L225.676 105.378C225.716 105.411 225.75 105.448 225.79 105.481C225.877 105.551 226.463 106.507 227.1 107.129C228.813 108.798 227.21 109.205 227.73 110.009C227.922 110.314 229.031 110.763 229.516 111.237C230.207 111.908 232.077 113.421 232.343 113.721C232.548 113.956 232.43 115.159 233.217 115.369C233.282 115.312 233.51 115.415 233.654 115.369C234.436 115.126 235.733 115.398 235.838 115.369C235.939 115.341 236.943 114.797 237.586 114.545C238.407 114.22 239.32 113.614 240.207 113.309C240.137 112.934 240.251 112.469 240.207 112.073C240.08 111.698 240.303 111.105 239.967 110.462C239.534 109.622 238.044 108.443 238.027 107.755C238.009 107.191 239.01 105.913 239.333 105.069L239.77 104.657C239.831 103.775 238.971 101.978 238.896 100.948C240.133 99.432 239.809 99.193 240.207 97.652C240.438 96.7538 239.949 95.9791 241.081 95.1798C241.365 94.9779 245.113 93.5605 245.45 93.5317C247.769 93.3462 247.621 94.6812 248.508 95.5918C249.36 96.4653 250.662 98.2 251.732 96.4241C252.051 95.9009 252.566 89.5391 252.44 88.5873L252.003 87.7632C251.042 85.7236 250.884 86.696 249.381 86.1151C249.246 86.0615 249.106 85.7689 248.945 85.703C248.599 85.5588 247.014 85.3404 246.428 84.7718C245.974 84.3351 246.105 83.5728 245.886 83.2308C245.843 83.1649 245.554 82.9012 245.45 82.8188C244.633 82.176 243.374 82.0194 242.391 82.4067C242.317 82.4356 241.133 83.1773 241.081 83.2308C239.193 85.2333 240.399 86.0738 236.275 86.9391C233.326 87.5572 233.645 86.7496 230.596 88.5873C230.491 88.6491 230.25 88.5213 230.159 88.5873C227.227 85.7978 227.765 89.8646 227.485 90.1859C227.297 90.4002 224.256 90.5444 224.47 92.2956C222.797 91.4591 223.758 88.8551 220.984 89.4113C220.351 85.7071 219.171 88.0969 217.891 88.7603C216.17 89.6462 214.435 90.2477 212.683 90.6474C212.063 90.7875 211.561 90.8864 210.936 91.0595C209.844 91.3644 209.695 91.4632 208.751 91.8835C208.59 91.9536 208.105 91.7805 207.751 91.8918C207.013 92.1184 204.693 94.9079 203.946 95.5918L203.509 96.0039C203.365 96.1398 203.22 96.2799 203.072 96.4159C202.993 96.4901 202.486 96.4118 202.233 96.6549C199.367 99.3743 200.516 99.9923 196.082 101.36C196.099 100.141 193.801 96.692 192.15 97.652C191.936 97.1534 191.923 96.4447 191.713 96.0039C191.254 95.0356 189.638 93.9231 189.965 92.2956C189.721 92.2667 189.371 91.9659 189.092 91.8835C189.179 86.5971 188.082 87.3718 185.4 83.6222C183.853 81.4591 182.316 80.0499 180.354 77.8744L180.136 77.6684C180.057 77.6024 179.978 77.5365 179.917 77.4623L179.48 77.0503C179.406 76.9803 179.332 76.9143 179.262 76.8443C179.249 76.8361 179.244 76.8319 179.24 76.8278C179.231 76.8196 179.227 76.8154 179.218 76.8031C179.157 76.7536 179.096 76.7001 179.043 76.6383C177.326 74.6523 174.709 71.4755 173.456 69.3041C172.42 67.5117 173.027 67.9238 171.179 65.9254V65.5134L170.306 65.1013C170.205 64.9736 170 64.8788 169.869 64.6893C169.803 64.5945 169.934 64.3803 169.869 64.2773C169.808 64.1784 169.93 63.9765 169.869 63.8652C169.546 63.276 169.34 63.037 168.558 63.0412C164.901 59.1845 159.156 56.3374 154.578 53.9764C151.983 52.6373 149.217 51.2446 147.151 49.444C146.727 49.0732 145.233 47.7011 144.966 47.3839C143.66 45.8346 142.874 43.5355 141.463 41.8297C140.86 41.1086 135.228 35.7563 134.818 35.5297C134.643 35.4349 131.275 34.3018 131.078 34.2565C130.471 34.1164 130.165 34.6191 130.112 34.6108C128.741 34.3801 126.718 33.0863 125.307 32.5507C124.499 32.2416 123.834 32.2416 122.685 31.7266C121.982 31.4135 120.824 31.0673 120.501 30.9025C117.102 29.1555 115.023 26.6174 112.2 24.31C111.169 23.4653 111.126 23.2016 110.016 22.6619C109.339 22.3322 108.544 22.1015 107.831 21.8378C107.674 21.7801 107.534 21.4752 107.395 21.4258C105.555 20.7459 103.948 21.4587 102.807 18.9618C102.554 18.9742 102.143 20.0578 101.715 20.1897L96.9094 17.3054C96.6472 17.1406 94.6813 16.3248 94.2881 16.0693C94.1395 15.9745 94.0172 15.7727 93.8512 15.6573C92.1386 14.4459 91.0901 13.1521 89.4823 11.949C89.36 11.8583 88.945 11.7759 88.6086 11.5369C88.0319 11.129 84.6417 8.67331 84.3796 8.61975C83.4403 8.43433 82.632 9.31608 80.9413 8.68979C79.9365 8.31484 79.6132 7.52374 78.9797 7.22707C77.0836 6.33296 73.9555 4.79607 72.007 4.12034C70.5435 3.61354 66.3931 2.32387 65.0169 2.06017C64.5407 1.96952 60.5651 1.66874 59.7743 1.64813C59.4816 1.63989 59.1933 1.65226 58.9005 1.64813C58.5816 1.64401 57.6773 1.59045 57.5899 1.64813C55.554 0.803466 54.1473 0.0741661 51.9104 0V0.412034C50.0143 -0.0164813 47.2445 0.795225 45.3572 1.2361C44.396 1.4586 44.2693 1.9242 42.299 2.06017C41.5781 2.10961 40.8354 2.01484 40.1146 2.06017C39.6821 2.08901 39.2364 2.03545 38.8039 2.06017C37.5457 2.13433 36.5715 2.03957 35.3089 2.4722C34.1206 2.88012 33.1157 3.65062 31.3769 4.12034C28.9173 4.78783 28.6945 4.87436 26.5712 5.76847C25.894 6.05278 25.1557 6.24643 24.3868 6.59254C21.5034 7.89457 21.5383 8.66095 19.5811 9.88881C19.3626 10.0248 17.5103 10.7458 17.3967 10.7129L16.9598 11.949C16.82 11.9737 16.6627 11.9243 16.5229 11.949C15.1904 12.1921 13.8186 14.0833 13.0278 14.8332C11.6386 16.1517 11.0182 17.087 9.96967 18.1295C9.79928 18.3025 9.26192 18.3726 9.0959 18.5415C8.66776 18.9824 8.20903 19.3532 7.78525 19.7776L7.34837 20.1897C4.95862 22.5135 4.33388 24.1781 2.54266 26.7822C1.88297 27.7381 0.939298 29.3203 0 29.7282C0.318924 31.3434 0.515522 32.9833 0.795127 34.6108C0.816971 34.7427 0.764545 34.891 0.795127 35.0229C0.982986 35.8428 1.32812 36.6298 1.23201 37.4951C0.449989 40.3711 1.5422 39.2091 1.66889 39.8354C1.95724 41.2487 1.42424 44.9941 1.66889 46.9718C1.70384 47.2397 1.61647 47.5569 1.66889 47.7959C1.70384 47.9484 1.97471 48.0843 2.10578 48.2079C2.25432 48.3439 2.38101 48.4964 2.54266 48.62C1.42861 50.1404 4.81445 55.159 5.60084 56.8607C6.05083 57.8331 6.47897 59.6089 6.95518 60.6596C7.57118 62.0111 8.92115 63.515 10.4065 65.1013C10.542 65.2455 10.7036 65.3733 10.8434 65.5134C11.7128 66.391 12.7002 67.1986 13.4647 67.9856C18.2049 72.8558 23.2072 77.5612 27.445 82.8188C27.8862 83.3668 28.3275 83.9107 28.7556 84.4669L29.6163 84.4834L29.6294 85.291L34.872 93.5317C34.7453 94.0673 34.5705 94.6277 34.4351 95.1798C34.173 96.2428 33.9152 97.446 33.5613 98.4761C32.8492 100.532 31.8182 102.423 31.1803 104.245C29.9352 107.821 29.5988 109.576 29.1925 113.309V117.018C29.2755 117.759 29.5158 118.394 29.6294 119.078C30.1973 122.489 30.5731 124.995 31.8138 128.142C32.9191 130.948 34.3477 132.836 35.7458 135.559C35.8025 135.67 35.6933 135.856 35.7458 135.971C35.8244 136.14 36.1258 136.264 36.1826 136.383L36.4186 136.828C36.4972 136.968 36.5671 137.096 36.6195 137.207C36.8336 137.685 37.2836 137.924 37.3579 138.699C37.5545 140.792 38.5637 144.113 40.2631 146.132C40.6563 146.597 41.8709 147.014 42.299 147.508C42.5568 147.805 42.7839 148.291 43.1728 148.744C44.4004 150.162 46.1217 151.604 47.1047 152.865C47.1746 152.955 47.0348 153.186 47.1047 153.277C47.961 154.389 48.5595 155.407 49.2891 156.573C49.5556 156.997 49.9139 157.38 50.1629 157.809C50.2197 157.908 50.3333 157.986 50.4338 158.064L50.5998 158.221C50.6609 158.328 50.5386 158.526 50.5998 158.633C50.6959 158.802 50.875 158.913 50.9711 158.983C51.0061 159.008 51.0279 159.029 51.0367 159.045C51.8624 160.586 51.7662 163.219 53.658 163.577C53.8414 164.525 55.1958 165.914 56.0521 166.486C56.703 166.919 57.3365 166.75 57.5899 166.874C59.0447 167.595 59.8311 167.97 61.5218 168.522C62.8412 168.954 62.5616 168.522 62.8194 168.522H62.8325C63.0553 168.53 63.2038 168.913 63.2694 168.934L64.1431 169.346C65.0038 169.61 66.2533 169.581 66.7644 169.758C69.176 170.598 75.2443 175.04 77.6865 176.762C77.8351 176.87 77.9486 177.076 78.1234 177.175H78.5603C79.3991 178.365 79.5738 179.577 81.1816 180.059C80.7403 182.531 81.7452 181.744 81.9286 182.201C81.9985 182.374 81.7408 182.622 82.0553 183.355C82.4048 184.179 83.1563 185.23 83.366 185.827C84.2004 188.213 82.7718 187.574 85.1135 190.36C85.6378 190.982 85.9829 191.155 86.4242 191.596C87.5906 192.754 88.9013 193.409 89.5697 194.805C90.2818 195.18 92.5099 194.871 93.4143 194.892C93.5585 194.896 93.707 194.888 93.8512 194.892C94.1526 195.502 95.0264 195.304 95.5987 195.304C96.171 195.304 97.0448 195.502 97.3462 194.892C97.4904 194.896 97.639 194.888 97.7831 194.892C97.971 195.23 98.4559 195.185 98.6569 195.304C100.64 196.495 104.555 197.574 105.664 199.218C106.285 200.137 106.997 202.527 107.565 203.553C108.255 204.797 109.361 205.963 110.016 207.253C110.033 207.29 109.57 207.752 109.806 208.081C110.191 208.621 111.89 209.449 112.637 209.725C116.132 211.019 116.482 210.298 119.19 208.489C119.645 208.184 120.383 208.25 120.798 207.245L121.375 207.253C122.576 207.282 124.324 206.19 125.744 207.253C125.752 207.455 128.186 209.404 128.802 210.137C130.527 212.189 130.654 215.284 133.743 215.349C135.429 215.387 137.347 214.472 138.85 214.258C138.99 214.237 139.143 214.274 139.287 214.258C139.3 214.109 139.243 213.916 139.287 213.846C139.361 213.73 140.934 211.884 141.035 211.785C141.078 211.74 141.519 211.835 141.738 211.633C144.337 209.268 146.378 207.537 150.209 208.077C150.825 209.445 151.725 208.823 152.393 209.482C153.918 210.982 153.918 212.568 152.83 214.258C152.708 214.319 152.276 214.13 152.035 214.315C151.926 214.406 151.297 216.046 151.275 216.297C151.157 217.496 151.472 220.146 151.083 221.262C150.436 223.129 146.203 223.487 149.335 226.207L149.554 225.803L149.772 226.207C149.838 226.248 149.707 226.586 149.772 226.619C150.047 226.577 150.414 226.68 150.646 226.619C151.974 226.26 151.376 226.503 152.393 226.619C152.437 226.623 152.621 226.198 153.21 226.404C154.744 226.936 157.225 228.658 157.199 230.327C157.182 231.588 156.09 233.149 157.225 234.628C157.715 235.259 160.546 235.972 161.568 236.507C162.704 237.105 164.639 238.052 165.5 238.568C165.644 238.654 165.898 239.664 166.374 239.804C165.989 240.306 166.037 240.883 165.937 241.452C165.784 242.317 165.937 242.593 165.937 242.675V242.688C165.399 244.756 161.887 246.013 159.838 246.417C159.659 247.344 160.222 248.193 160.262 249.095C160.292 249.701 159.807 250.389 159.82 250.517L157.636 250.929C157.26 250.768 156.522 251.246 155.849 250.661C155.141 250.043 155.019 248.238 154.578 247.22C154.486 247.01 154.587 246.635 154.355 246.388C153.94 245.955 153.556 246.112 153.267 245.984H151.52C148.702 246.804 146.867 249.268 143.656 248.868C143.516 248.774 142.612 248.901 141.873 248.292C140.925 247.509 141.096 246.285 140.161 245.572C140.462 245.024 140.851 244.109 141.035 243.512C141.336 242.531 142.096 241.378 140.759 240.661C138.92 241.155 137.203 240.982 135.355 241.04C135.093 240.319 133.835 240.397 133.608 240.216C133.241 239.919 133.013 239.033 132.59 238.708C131.808 238.114 130.755 238.011 130.44 237.01C129.968 236.804 128.317 237.13 127.784 237.364C127.024 237.706 124.8 239.528 124.415 240.1C123.227 241.88 123.852 243.574 121.812 245.16C119.256 247.142 116.98 246.083 114.153 245.139L113.511 245.984C113.231 245.951 112.895 246.034 112.637 245.984L111.763 245.572C111.126 245.733 111.082 246.701 110.89 246.808C108.574 248.114 109.583 247.554 107.831 249.28C106.311 250.776 104.358 252.383 102.589 253.813C98.5127 257.109 96.7783 259.083 95.1618 264.114C94.9609 264.74 94.8385 265.078 94.7249 265.762V266.998C94.808 267.476 95.0876 267.884 95.1618 268.234C95.2143 268.481 95.1269 268.794 95.1618 269.058V269.47C96.0269 270.175 96.538 270.438 97.7831 270.294C97.7394 270.418 97.8268 270.583 97.7831 270.706C98.338 270.537 99.251 271.126 99.5307 271.118C99.7316 273.129 100.544 274.917 103.026 274.414C102.772 276.232 102.204 277.006 101.278 278.535C100.064 279.268 99.1593 280.974 99.5918 282.367C100.055 283.846 103.253 284.53 104.336 285.127C104.808 285.387 105.555 286.417 106.084 286.775V287.6L106.512 287.806L106.084 288.012V288.424C106.084 289.52 106.066 290.624 106.084 291.72H106.521V295.016H106.958C106.914 295.177 106.582 295.309 106.521 295.428C106.342 295.77 105.525 296.512 105.647 296.66C107.879 296.73 107.067 297.637 107.626 298.691C108.356 300.059 109.714 299.738 110.016 299.961C110.597 300.389 112.27 302.05 113.065 302.602C113.419 302.849 114.332 302.519 114.725 302.919C115.092 303.294 116.01 305.816 116.132 306.553L115.722 306.755C115.8 309.417 117.342 309.433 119.19 310.673H119.627C120.086 310.743 120.545 310.846 120.938 311.085C121.462 311.403 121.619 311.782 121.812 311.91H122.249L123.122 311.498H123.559L123.786 311.09C123.944 311.003 124.228 311.143 124.433 311.085H124.87C129.802 309.384 129.151 308.284 130.986 304.493C131.222 304.007 131.803 303.689 132.009 303.265C132.297 302.672 132.227 301.176 133.171 300.373C133.848 300.142 134.949 299.087 135.342 298.963C136.412 298.621 136.88 298.914 138.854 298.09C139.344 297.888 140.108 298.04 140.502 297.802C140.751 297.653 140.812 296.969 141.035 296.664C142.101 296.322 142.966 296.038 144.093 295.84C146.273 295.453 147.479 295.189 149.772 295.84C150.178 295.956 150.655 296.499 151.083 296.664C151.38 296.78 151.655 296.977 151.957 297.076C153.647 297.633 153.708 297.513 155.452 297.076C155.574 297.047 155.958 296.467 156.609 296.335C157.806 296.092 159.917 296.112 161.039 296.565C161.629 296.804 161.778 297.34 162.005 297.488C163.8 298.654 164.901 299.091 167.252 298.098C167.759 297.884 168.051 297.097 168.121 297.076C168.672 296.903 169.672 298.168 170.306 295.84H172.053C172.28 295.914 172.739 296.125 172.927 296.252L173.145 295.848L173.364 296.252C173.713 296.561 174.146 297.88 174.675 298.312C174.644 298.856 174.688 299.417 174.675 299.961C174.963 299.989 175.26 299.94 175.548 299.961L175.758 299.614C175.893 299.684 175.893 299.878 175.985 299.961C176.719 300.076 177.462 299.882 177.733 300.785C178.209 300.818 178.825 300.649 179.043 301.197C179.777 301.044 181.302 300.167 182.538 299.961H182.975C183.412 299.948 183.849 299.969 184.286 299.961C184.343 300.064 185.142 300.377 185.404 300.748C186.025 301.609 186.789 302.767 187.344 303.669C187.445 303.83 187.711 303.949 187.781 304.081L188.209 304.283L187.781 304.493C187.938 304.802 187.764 305.428 188.436 305.721C189.231 304.88 190.415 304.818 191.455 304.439C191.84 304.299 192.062 303.702 192.15 303.669C193.849 303.01 195.282 304.056 196.956 304.493C197.371 304.6 197.786 304.79 198.266 304.905C198.546 304.942 198.891 304.851 199.14 304.905V305.317C199.275 305.35 199.437 305.288 199.577 305.317C199.839 305.371 200.18 305.268 200.451 305.317C200.914 305.399 201.359 305.469 201.761 305.729H202.198C203.072 305.708 203.95 305.758 204.819 305.729C204.885 305.725 205.103 306.137 206.108 305.989C208.004 305.708 209.022 304.522 210.062 304.081C210.184 304.027 210.377 304.13 210.499 304.081C211.176 303.797 211.888 303.817 212.246 303.669C212.797 303.442 213.063 302.865 213.12 302.845C215.038 302.177 216.69 302.157 218.363 301.609V302.021L221.351 302.923C221.552 303.22 221.294 303.879 221.447 304.172C222.469 306.071 222.989 308.778 224.042 311.085C225.388 314.032 228.525 318.799 230.596 321.386C231.412 322.408 232.789 324.003 234.056 324.464C236.004 325.169 237.918 324.761 239.77 324.271C240.054 324.196 240.373 323.908 240.644 323.859C240.784 323.834 240.937 323.879 241.081 323.859V324.271C241.19 325.329 242.811 324.868 243.178 325.177C243.593 325.523 243.117 327.299 245.45 326.743C245.484 326.788 246.288 326.594 246.332 326.986C245.856 328.024 245.873 328.943 245.886 330.039C244.698 330.632 244.772 332.635 244.139 333.747C244.091 333.83 243.859 333.863 243.265 334.983C243.221 335.062 242.627 335.189 242.483 335.688C242.291 336.343 242.496 336.974 242.391 337.456C242.064 338.964 242.212 339.141 241.518 340.752C241.142 341.617 241.452 342.173 240.198 342.635C240.727 343.883 240.543 345.124 240.98 346.409C241.404 347.653 244.991 352.73 246.166 352.989C247.101 353.199 247.533 353.269 248.508 353.525C248.648 353.562 248.822 353.484 248.945 353.525L249.596 353.933L249.818 353.525C250.002 353.583 250.124 353.809 250.255 353.937C250.207 354.197 250.452 354.357 250.692 354.349C250.841 354.345 251.024 354.382 251.129 354.349C252.121 354.885 252.553 356.104 253.313 356.821C255.659 359.03 256.835 359.199 259.985 357.542C260.802 357.114 260.858 356.644 261.177 356.409L261.426 356.178L261.614 355.997C262.912 354.901 263.532 354.794 264.235 353.113V352.289H264.672C265.245 352.314 265.018 351.741 265.109 351.465C265.437 350.472 265.599 349.24 265.983 348.169C266.127 347.773 266.271 347.311 266.42 346.932C266.586 346.508 266.739 345.964 266.857 345.696C266.909 345.581 267.211 345.457 267.294 345.284C267.385 345.095 267.202 344.637 267.294 344.46C268.561 342.075 271.274 338.881 272.973 336.632V336.22C273.074 336.248 273.301 336.236 273.41 336.22C273.663 336.182 277.456 335.107 277.779 334.983C280.619 333.896 283.419 330.707 284.721 328.14C286.49 324.65 288.142 321.18 290.012 317.678C290.025 317.657 290.042 317.641 290.06 317.62C290.081 317.596 290.112 317.571 290.147 317.546C290.151 317.542 290.156 317.542 290.156 317.538C290.243 317.464 290.344 317.394 290.409 317.328C290.427 317.307 290.44 317.287 290.448 317.266C290.58 317.043 290.527 316.627 290.885 316.442C291.008 316.162 291.222 315.898 291.322 315.618C291.846 314.155 292.235 312.651 292.196 311.085V310.673C292.795 310.323 292.183 309.886 292.196 309.849C292.943 307.711 296.709 304.74 297.539 302.326C298.02 300.929 297.963 300.092 297.439 298.724C296.574 296.462 294.979 296.837 295.883 293.339C296.386 291.382 298.496 290.579 300.06 289.248C300.527 288.852 300.759 288.156 300.934 288.012V287.6C299.584 287.163 300.58 286.063 300.934 285.127ZM232.78 132.675C232.706 132.728 232.85 133.004 232.78 133.087L232.352 132.881L232.78 132.675Z" fill="#BAD800"/>
</svg>
